:SAMPLES-PER-SECOND 30
:FULLY-SPECIFIED
:DEGREES
330
root  36.4864 38.1566 4.93331 -135.131 83.9936 -133.337
RightUpLeg  -19.7179 -7.43109 2.50555
RightLeg  49.3872 2.92319 3.31275
RightFoot  -10.3766 -0.15953 9.96075
RightToes  0.00048216 0.542163 -0.142577
Spine  48.5467 -1.71552 1.62245
Spine1  6.25234 0.302819 -6.0725
HEad  -27.7261 34.2703 -33.9178
LeftShoulder1  10.4314 -16.4008 -45.6903
LeftArm  -20.9957 0.738204 -18.6465
LeftForeArm  21.2533 -71.3157 -34.0689
LeftHand  -0.25398 0.0180481 5.50724
RightShoulder  5.85783 11.1763 33.9512
RightArm  -14.4544 -4.47863 27.2776
RightForeArm  8.44745 76.1237 60.2919
RightHand  0.398505 -13.2422 -7.02142
LeftUpLeg  -25.8709 19.8838 -2.08966
LeftLeg  11.6301 -2.69031 -4.90274
LeftFoot  16.6481 -2.8082 10.8219
LeftToes  1.06246e-005 4.65856e-005 -8.18501e-006
331
root  35.8591 37.8819 5.16725 -153.426 82.9852 -148.895
RightUpLeg  -14.9509 -5.42189 2.74894
RightLeg  52.8889 5.86222 7.85088
RightFoot  -10.627 -0.156125 14.0674
RightToes  0.00048216 0.542163 -0.142577
Spine  46.3412 -1.6958 1.59174
Spine1  5.88778 0.441319 -6.62549
HEad  -25.4773 38.0039 -33.8062
LeftShoulder1  10.3499 -15.9294 -46.4595
LeftArm  -21.1382 6.36508 -18.3924
LeftForeArm  27.5168 -73.7324 -40.4334
LeftHand  -0.25398 0.0180481 5.50724
RightShoulder  5.79643 10.8942 34.3046
RightArm  -13.4132 -8.23704 28.3624
RightForeArm  16.8215 77.0966 69.696
RightHand  0.539895 -13.9787 -8.32738
LeftUpLeg  -23.8207 18.0158 -2.02017
LeftLeg  11.4527 -2.56306 -5.04945
LeftFoot  17.6275 -2.80335 10.3942
LeftToes  1.06246e-005 4.65856e-005 -8.18501e-006
332
root  35.1753 37.593 5.3908 -167.872 81.1624 -160.83
RightUpLeg  -9.81018 -3.68329 3.52055
RightLeg  53.2739 7.6571 10.4755
RightFoot  -11.8182 -0.0344428 13.6619
RightToes  0.00048216 0.542163 -0.142577
Spine  43.8301 -1.85058 2.1594
Spine1  5.997 0.609143 -7.2686
HEad  -23.3205 41.3782 -33.4566
LeftShoulder1  10.1654 -15.4757 -46.7301
LeftArm  -21.6043 11.2713 -18.6201
LeftForeArm  35.8604 -75.8926 -48.7825
LeftHand  -0.25398 0.0180481 5.50724
RightShoulder  5.7557 10.6866 34.6043
RightArm  -12.6632 -11.0167 29.0629
RightForeArm  23.0241 77.5305 76.6833
RightHand  0.643622 -14.7569 -8.93601
LeftUpLeg  -21.9952 16.2901 -2.50149
LeftLeg  10.9087 -3.22084 -5.33965
LeftFoot  19.2281 -2.99071 10.4576
LeftToes  1.06246e-005 4.65856e-005 -8.18501e-006
333
root  34.4347 37.3421 5.59673 -178.153 78.176 -169.515
RightUpLeg  -5.27299 -3.62609 4.48441
RightLeg  50.1575 7.21826 8.90256
RightFoot  -16.692 0.12961 6.1403
RightToes  0.00048216 0.542163 -0.142577
Spine  40.4373 -2.13961 3.40363
Spine1  6.40947 0.620685 -7.40801
HEad  -21.2779 44.7739 -32.9292
LeftShoulder1  9.87787 -15.0761 -46.3761
LeftArm  -22.1665 15.2069 -19.6885
LeftForeArm  46.6308 -77.6317 -59.3621
LeftHand  -0.25398 0.0180481 5.50724
RightShoulder  5.55167 10.293 34.2831
RightArm  -11.9075 -13.1095 29.593
RightForeArm  28.0292 77.7336 82.5735
RightHand  0.734346 -15.8748 -9.03031
LeftUpLeg  -20.2329 12.9391 -3.01492
LeftLeg  8.4374 -3.20884 -5.92087
LeftFoot  22.0784 -2.73936 8.68651
LeftToes  1.06246e-005 4.65856e-005 -8.18501e-006
334
root  33.5516 37.1142 5.80522 175.935 74.4377 -175.006
RightUpLeg  -2.9141 -5.57908 5.09619
RightLeg  45.6014 3.62103 3.6402
RightFoot  -23.0497 -0.434914 -2.8967
RightToes  0.00048216 0.542163 -0.142577
Spine  36.4536 -2.11617 4.88053
Spine1  7.2239 0.872334 -7.26173
HEad  -19.9933 47.757 -33.2799
LeftShoulder1  9.58552 -14.7883 -45.692
LeftArm  -22.5405 17.587 -21.4132
LeftForeArm  58.5311 -78.7328 -70.7901
LeftHand  -0.25398 0.0180481 5.50724
RightShoulder  5.19726 9.79112 33.148
RightArm  -11.0796 -14.8454 29.7435
RightForeArm  33.4974 77.7996 89.3984
RightHand  0.830904 -16.9653 -9.1799
LeftUpLeg  -19.0224 7.67744 -2.75753
LeftLeg  4.08508 -1.37867 -6.9736
LeftFoot  25.1852 -0.285336 0.439625
LeftToes  1.06246e-005 4.65856e-005 -8.18501e-006
335
root  32.503 36.9072 5.99897 174.597 70.9897 -176.295
RightUpLeg  -3.33861 -8.76338 5.46231
RightLeg  43.3252 -0.314235 -0.673645
RightFoot  -26.3658 -1.15995 -7.54976
RightToes  0.00048216 0.542163 -0.142577
Spine  33.1582 -1.71772 7.13176
Spine1  8.21767 1.75345 -7.39238
HEad  -20.7252 50.1967 -35.2471
LeftShoulder1  9.44029 -14.6536 -45.3203
LeftArm  -22.5394 18.2388 -22.8647
LeftForeArm  69.3626 -79.2467 -81.0144
LeftHand  -0.25398 0.0180481 5.50724
RightShoulder  4.93895 9.52198 31.9769
RightArm  -10.2054 -16.2067 28.8537
RightForeArm  39.0486 77.6762 96.7804
RightHand  0.909257 -17.1066 -9.8297
LeftUpLeg  -18.3857 3.85359 -1.32124
LeftLeg  -0.31736 0.367305 -8.23523
LeftFoot  26.2588 4.86716 -14.7842
LeftToes  1.06246e-005 4.65856e-005 -8.18501e-006
336
root  31.3612 36.7979 6.16996 175.757 67.8321 -174.864
RightUpLeg  -5.37413 -12.5054 5.63543
RightLeg  43.7321 -1.32742 -1.68211
RightFoot  -26.1064 -1.28637 -8.5446
RightToes  0.00048216 0.542163 -0.142577
Spine  31.3247 -1.39871 10.2469
Spine1  8.90333 2.9044 -7.93221
HEad  -23.5413 52.2786 -38.6066
LeftShoulder1  9.45387 -14.6308 -45.447
LeftArm  -22.1763 17.8089 -23.4061
LeftForeArm  78.1154 -79.3977 -89.2871
LeftHand  -0.25398 0.0180481 5.50724
RightShoulder  4.89862 9.58241 31.4879
RightArm  -9.37044 -16.9823 27.0547
RightForeArm  42.2808 77.4613 101.862
RightHand  0.924944 -16.3424 -10.6071
LeftUpLeg  -18.0701 3.74711 0.100213
LeftLeg  -2.47048 -0.781645 -8.95645
LeftFoot  24.2753 9.3939 -29.2627
LeftToes  1.06246e-005 4.65856e-005 -8.18501e-006
337
root  30.1486 36.9333 6.38374 176.124 63.8172 -174.59
RightUpLeg  -7.61765 -16.6074 4.99682
RightLeg  43.6039 -0.779067 -1.12319
RightFoot  -24.0517 -1.08114 -8.22826
RightToes  0.00048216 0.542163 -0.142577
Spine  30.53 -1.34331 12.4257
Spine1  9.30367 3.70807 -8.51334
HEad  -27.5321 54.5282 -42.9531
LeftShoulder1  9.51416 -14.6377 -45.7293
LeftArm  -21.5501 17.0432 -23.3066
LeftForeArm  84.2703 -79.3762 -95.0709
LeftHand  -0.25398 0.0180481 5.50724
RightShoulder  4.95122 9.71704 31.5044
RightArm  -8.84878 -17.2765 25.4216
RightForeArm  41.9411 77.3955 102.707
RightHand  0.882367 -15.9007 -10.5758
LeftUpLeg  -18.7332 5.75585 -0.44285
LeftLeg  -0.852022 -4.39353 -8.658
LeftFoot  20.2138 9.54468 -33.2808
LeftToes  1.06246e-005 4.65856e-005 -8.18501e-006
338
root  28.9415 37.3229 6.65583 175.46 58.822 -176.164
RightUpLeg  -9.45765 -20.9638 3.70525
RightLeg  41.2739 -0.752396 -1.00931
RightFoot  -21.4292 -0.852282 -8.00781
RightToes  0.00048216 0.542163 -0.142577
Spine  29.8009 -1.1914 13.0149
Spine1  9.44205 4.14501 -8.76837
HEad  -31.0524 56.652 -46.5385
LeftShoulder1  9.56553 -14.6528 -45.9453
LeftArm  -20.6763 16.1815 -23.1414
LeftForeArm  87.0203 -79.3567 -97.2822
LeftHand  -0.25398 0.0180481 5.50724
RightShoulder  4.95779 9.73264 31.5099
RightArm  -8.91618 -17.7172 24.6624
RightForeArm  39.5606 77.4804 100.651
RightHand  0.826135 -16.3 -9.64859
LeftUpLeg  -20.2049 9.00553 -3.22395
LeftLeg  3.41527 -7.34709 -7.26799
LeftFoot  15.1127 6.36133 -26.8834
LeftToes  1.06246e-005 4.65856e-005 -8.18501e-006
339
root  27.8273 37.8529 6.91569 174.981 53.6911 -177.984
RightUpLeg  -10.7747 -24.9859 2.3797
RightLeg  37.6008 -1.38512 -1.4276
RightFoot  -18.3356 -0.59055 -7.59946
RightToes  0.00048216 0.542163 -0.142577
Spine  28.936 -0.743264 12.981
Spine1  9.18741 4.57536 -8.95626
HEad  -33.4021 57.9909 -48.9849
LeftShoulder1  9.61312 -14.6835 -46.1009
LeftArm  -19.6402 15.3464 -23.1622
LeftForeArm  86.6752 -79.4133 -96.1803
LeftHand  -0.25398 0.0180481 5.50724
RightShoulder  4.93489 9.70813 31.4053
RightArm  -9.42435 -18.8318 24.5287
RightForeArm  37.6122 77.5445 98.8521
RightHand  0.793563 -16.7469 -8.97392
LeftUpLeg  -21.1632 12.3056 -5.96119
LeftLeg  7.26136 -6.44776 -5.36014
LeftFoot  9.70758 3.38428 -18.4674
LeftToes  1.06246e-005 4.65856e-005 -8.18501e-006
340
root  26.7962 38.459 7.11205 174.889 48.5777 -179.482
RightUpLeg  -11.4598 -28.4889 0.968098
RightLeg  33.3137 -2.04273 -1.71048
RightFoot  -14.7262 -0.292928 -6.48264
RightToes  0.00048216 0.542163 -0.142577
Spine  28.183 -0.339054 12.8829
Spine1  8.60577 4.97954 -9.42096
HEad  -34.3296 58.2599 -49.87
LeftShoulder1  9.62917 -14.6945 -46.1512
LeftArm  -18.6708 14.9206 -23.3037
LeftForeArm  85.0859 -79.4774 -93.9547
LeftHand  -0.25398 0.0180481 5.50724
RightShoulder  4.93589 9.72421 31.3672
RightArm  -9.86205 -20.4536 24.5259
RightForeArm  37.1412 77.5238 99.0687
RightHand  0.829724 -16.7322 -9.34381
LeftUpLeg  -21.2448 15.4262 -7.41292
LeftLeg  9.82791 -4.31458 -3.60967
LeftFoot  5.06645 1.99242 -14.0736
LeftToes  1.06246e-005 4.65856e-005 -8.18501e-006
341
root  25.824 39.0486 7.21985 175.152 43.1185 179.307
RightUpLeg  -11.4531 -32.3827 -0.667062
RightLeg  28.4954 -2.38392 -1.77207
RightFoot  -11.1941 -0.0680136 -5.07985
RightToes  0.00048216 0.542163 -0.142577
Spine  27.2744 -0.174377 12.6452
Spine1  7.88077 5.07706 -9.90893
HEad  -34.113 57.9043 -49.582
LeftShoulder1  9.59445 -14.6576 -46.0761
LeftArm  -17.8637 15.1927 -23.4455
LeftForeArm  83.89 -79.5022 -92.5264
LeftHand  -0.25398 0.0180481 5.50724
RightShoulder  4.9182 9.66531 31.4
RightArm  -9.90754 -22.1337 24.4405
RightForeArm  38.0016 77.4448 100.762
RightHand  0.89559 -16.7823 -9.94417
LeftUpLeg  -21.1118 18.4166 -7.97058
LeftLeg  12.1574 -4.12911 -2.25986
LeftFoot  2.265 1.4294 -12.088
LeftToes  1.06246e-005 4.65856e-005 -8.18501e-006
